<mxfile host="app.diagrams.net" modified="2024-07-21T20:18:15.568Z" agent="Mozilla/5.0 (Windows NT 10.0; Win64; x64) AppleWebKit/537.36 (KHTML, like Gecko) Chrome/126.0.0.0 Safari/537.36" etag="RYJ0KPCeSdk9DBGp-TWT" version="24.7.1" type="google">
  <diagram name="Page-1" id="2JwfxyhNlJkoeVYMsjid">
    <mxGraphModel grid="1" page="1" gridSize="10" guides="1" tooltips="1" connect="1" arrows="1" fold="1" pageScale="1" pageWidth="827" pageHeight="1169" math="0" shadow="0">
      <root>
        <mxCell id="0" />
        <mxCell id="1" parent="0" />
        <mxCell id="zEI79FT7mEAm1ag7M34E-1" value="Start" style="ellipse;whiteSpace=wrap;html=1;" vertex="1" parent="1">
          <mxGeometry x="350" y="20" width="100" height="60" as="geometry" />
        </mxCell>
        <mxCell id="zEI79FT7mEAm1ag7M34E-4" value="" style="endArrow=classic;html=1;rounded=0;exitX=0.5;exitY=1;exitDx=0;exitDy=0;" edge="1" parent="1" source="zEI79FT7mEAm1ag7M34E-1">
          <mxGeometry width="50" height="50" relative="1" as="geometry">
            <mxPoint x="410" y="120" as="sourcePoint" />
            <mxPoint x="400" y="140" as="targetPoint" />
            <Array as="points">
              <mxPoint x="400.8" y="130" />
            </Array>
          </mxGeometry>
        </mxCell>
        <mxCell id="zEI79FT7mEAm1ag7M34E-6" value="User Authentication" style="rounded=1;whiteSpace=wrap;html=1;" vertex="1" parent="1">
          <mxGeometry x="350" y="140" width="100" height="50" as="geometry" />
        </mxCell>
        <mxCell id="zEI79FT7mEAm1ag7M34E-7" value="" style="endArrow=classic;html=1;rounded=0;exitX=0.5;exitY=1;exitDx=0;exitDy=0;" edge="1" parent="1" source="zEI79FT7mEAm1ag7M34E-6">
          <mxGeometry width="50" height="50" relative="1" as="geometry">
            <mxPoint x="390" y="210" as="sourcePoint" />
            <mxPoint x="400" y="260" as="targetPoint" />
            <Array as="points">
              <mxPoint x="400" y="220" />
              <mxPoint x="400" y="260" />
            </Array>
          </mxGeometry>
        </mxCell>
        <mxCell id="zEI79FT7mEAm1ag7M34E-8" value="Dashboard Access" style="rounded=1;whiteSpace=wrap;html=1;" vertex="1" parent="1">
          <mxGeometry x="350" y="260" width="100" height="50" as="geometry" />
        </mxCell>
        <mxCell id="zEI79FT7mEAm1ag7M34E-9" value="" style="endArrow=classic;html=1;rounded=0;" edge="1" parent="1">
          <mxGeometry width="50" height="50" relative="1" as="geometry">
            <mxPoint x="400" y="310" as="sourcePoint" />
            <mxPoint x="400" y="380" as="targetPoint" />
            <Array as="points">
              <mxPoint x="400" y="340" />
              <mxPoint x="400" y="380" />
            </Array>
          </mxGeometry>
        </mxCell>
        <mxCell id="zEI79FT7mEAm1ag7M34E-10" value="Choose User Role" style="rhombus;whiteSpace=wrap;html=1;" vertex="1" parent="1">
          <mxGeometry x="350" y="380" width="100" height="90" as="geometry" />
        </mxCell>
        <mxCell id="zEI79FT7mEAm1ag7M34E-21" value="" style="endArrow=classic;html=1;rounded=0;edgeStyle=orthogonalEdgeStyle;exitX=0;exitY=0.5;exitDx=0;exitDy=0;" edge="1" parent="1" source="zEI79FT7mEAm1ag7M34E-10">
          <mxGeometry width="50" height="50" relative="1" as="geometry">
            <mxPoint x="320" y="430" as="sourcePoint" />
            <mxPoint x="280" y="505" as="targetPoint" />
          </mxGeometry>
        </mxCell>
        <mxCell id="zEI79FT7mEAm1ag7M34E-23" value="" style="endArrow=classic;html=1;rounded=0;edgeStyle=orthogonalEdgeStyle;exitX=1;exitY=0.5;exitDx=0;exitDy=0;" edge="1" parent="1" source="zEI79FT7mEAm1ag7M34E-10">
          <mxGeometry width="50" height="50" relative="1" as="geometry">
            <mxPoint x="570" y="430" as="sourcePoint" />
            <mxPoint x="500" y="510" as="targetPoint" />
            <Array as="points">
              <mxPoint x="501" y="425" />
            </Array>
          </mxGeometry>
        </mxCell>
        <mxCell id="zEI79FT7mEAm1ag7M34E-24" value="Whiteboard Interface" style="rounded=1;whiteSpace=wrap;html=1;" vertex="1" parent="1">
          <mxGeometry x="450" y="510" width="110" height="50" as="geometry" />
        </mxCell>
        <mxCell id="zEI79FT7mEAm1ag7M34E-25" value="Admin Dashboard" style="rounded=1;whiteSpace=wrap;html=1;" vertex="1" parent="1">
          <mxGeometry x="220" y="510" width="120" height="50" as="geometry" />
        </mxCell>
        <mxCell id="zEI79FT7mEAm1ag7M34E-26" value="Adminstrator" style="text;html=1;align=center;verticalAlign=middle;resizable=0;points=[];autosize=1;strokeColor=none;fillColor=none;" vertex="1" parent="1">
          <mxGeometry x="270" y="390" width="90" height="30" as="geometry" />
        </mxCell>
        <mxCell id="zEI79FT7mEAm1ag7M34E-27" value="Collaborators" style="text;html=1;align=center;verticalAlign=middle;resizable=0;points=[];autosize=1;strokeColor=none;fillColor=none;" vertex="1" parent="1">
          <mxGeometry x="430" y="390" width="90" height="30" as="geometry" />
        </mxCell>
        <mxCell id="zEI79FT7mEAm1ag7M34E-29" value="" style="endArrow=classic;html=1;rounded=0;exitX=0.5;exitY=1;exitDx=0;exitDy=0;entryX=0.5;entryY=0;entryDx=0;entryDy=0;" edge="1" parent="1" source="zEI79FT7mEAm1ag7M34E-25" target="zEI79FT7mEAm1ag7M34E-32">
          <mxGeometry width="50" height="50" relative="1" as="geometry">
            <mxPoint x="255" y="635" as="sourcePoint" />
            <mxPoint x="280" y="610" as="targetPoint" />
          </mxGeometry>
        </mxCell>
        <mxCell id="zEI79FT7mEAm1ag7M34E-30" value="" style="endArrow=classic;html=1;rounded=0;exitX=0.5;exitY=1;exitDx=0;exitDy=0;" edge="1" parent="1">
          <mxGeometry width="50" height="50" relative="1" as="geometry">
            <mxPoint x="500" y="560" as="sourcePoint" />
            <mxPoint x="500" y="610" as="targetPoint" />
          </mxGeometry>
        </mxCell>
        <mxCell id="zEI79FT7mEAm1ag7M34E-32" value="System Managnment and Monitoring" style="rounded=1;whiteSpace=wrap;html=1;" vertex="1" parent="1">
          <mxGeometry x="220" y="730" width="120" height="50" as="geometry" />
        </mxCell>
        <mxCell id="zEI79FT7mEAm1ag7M34E-33" value="Real-time Collaboration" style="rounded=1;whiteSpace=wrap;html=1;" vertex="1" parent="1">
          <mxGeometry x="440" y="610" width="120" height="50" as="geometry" />
        </mxCell>
        <mxCell id="zEI79FT7mEAm1ag7M34E-35" value="" style="endArrow=classic;html=1;rounded=0;exitX=0.5;exitY=1;exitDx=0;exitDy=0;entryX=0.5;entryY=0;entryDx=0;entryDy=0;" edge="1" parent="1" source="zEI79FT7mEAm1ag7M34E-33" target="zEI79FT7mEAm1ag7M34E-36">
          <mxGeometry width="50" height="50" relative="1" as="geometry">
            <mxPoint x="499.5" y="670" as="sourcePoint" />
            <mxPoint x="499.5" y="720" as="targetPoint" />
          </mxGeometry>
        </mxCell>
        <mxCell id="zEI79FT7mEAm1ag7M34E-36" value="Data Storage and Real-time Updates" style="rounded=1;whiteSpace=wrap;html=1;" vertex="1" parent="1">
          <mxGeometry x="440" y="730" width="120" height="50" as="geometry" />
        </mxCell>
        <mxCell id="zEI79FT7mEAm1ag7M34E-38" value="" style="endArrow=classic;html=1;rounded=0;exitX=0.5;exitY=1;exitDx=0;exitDy=0;entryX=0.5;entryY=0;entryDx=0;entryDy=0;" edge="1" parent="1" target="zEI79FT7mEAm1ag7M34E-46">
          <mxGeometry width="50" height="50" relative="1" as="geometry">
            <mxPoint x="499.5" y="780" as="sourcePoint" />
            <mxPoint x="499.5" y="850" as="targetPoint" />
          </mxGeometry>
        </mxCell>
        <mxCell id="zEI79FT7mEAm1ag7M34E-39" value="" style="endArrow=classic;html=1;rounded=0;edgeStyle=orthogonalEdgeStyle;exitX=0.25;exitY=1;exitDx=0;exitDy=0;" edge="1" parent="1">
          <mxGeometry width="50" height="50" relative="1" as="geometry">
            <mxPoint x="240" y="780" as="sourcePoint" />
            <mxPoint x="200" y="859" as="targetPoint" />
          </mxGeometry>
        </mxCell>
        <mxCell id="zEI79FT7mEAm1ag7M34E-40" value="" style="endArrow=classic;html=1;rounded=0;edgeStyle=orthogonalEdgeStyle;" edge="1" parent="1">
          <mxGeometry width="50" height="50" relative="1" as="geometry">
            <mxPoint x="289.5" y="780" as="sourcePoint" />
            <mxPoint x="360" y="860" as="targetPoint" />
          </mxGeometry>
        </mxCell>
        <mxCell id="zEI79FT7mEAm1ag7M34E-43" value="Export and Share (RO)" style="rounded=1;whiteSpace=wrap;html=1;" vertex="1" parent="1">
          <mxGeometry x="140" y="860" width="120" height="50" as="geometry" />
        </mxCell>
        <mxCell id="zEI79FT7mEAm1ag7M34E-44" value="Viewers:&lt;div&gt;View Dashboard&lt;/div&gt;" style="rounded=1;whiteSpace=wrap;html=1;" vertex="1" parent="1">
          <mxGeometry x="294" y="860" width="120" height="50" as="geometry" />
        </mxCell>
        <mxCell id="zEI79FT7mEAm1ag7M34E-45" value="" style="endArrow=classic;html=1;rounded=0;exitX=0.5;exitY=1;exitDx=0;exitDy=0;entryX=0.5;entryY=0;entryDx=0;entryDy=0;" edge="1" parent="1">
          <mxGeometry width="50" height="50" relative="1" as="geometry">
            <mxPoint x="360" y="910" as="sourcePoint" />
            <mxPoint x="360" y="980" as="targetPoint" />
          </mxGeometry>
        </mxCell>
        <mxCell id="zEI79FT7mEAm1ag7M34E-46" value="End Collabration" style="rounded=1;whiteSpace=wrap;html=1;" vertex="1" parent="1">
          <mxGeometry x="440" y="860" width="120" height="50" as="geometry" />
        </mxCell>
        <mxCell id="zEI79FT7mEAm1ag7M34E-49" value="" style="endArrow=classic;html=1;rounded=0;exitX=0.5;exitY=1;exitDx=0;exitDy=0;entryX=0.5;entryY=0;entryDx=0;entryDy=0;" edge="1" parent="1">
          <mxGeometry width="50" height="50" relative="1" as="geometry">
            <mxPoint x="499.5" y="910" as="sourcePoint" />
            <mxPoint x="499.5" y="980" as="targetPoint" />
          </mxGeometry>
        </mxCell>
        <mxCell id="zEI79FT7mEAm1ag7M34E-50" value="View Shared Links" style="rounded=1;whiteSpace=wrap;html=1;" vertex="1" parent="1">
          <mxGeometry x="300" y="980" width="120" height="50" as="geometry" />
        </mxCell>
        <mxCell id="zEI79FT7mEAm1ag7M34E-51" value="End" style="rounded=1;whiteSpace=wrap;html=1;" vertex="1" parent="1">
          <mxGeometry x="440" y="980" width="120" height="50" as="geometry" />
        </mxCell>
      </root>
    </mxGraphModel>
  </diagram>
</mxfile>
